<?xml version="1.0" encoding="utf-8"?><svg viewBox="0 0 160 30" xmlns="http://www.w3.org/2000/svg" xmlns:xlink="http://www.w3.org/1999/xlink"><style>:root>svg{display:none}:root>svg:target{display:block}</style><svg fill="none" viewBox="0 0 160 30" id="Logo" xmlns="http://www.w3.org/2000/svg"><path d="M14.145 1.23l-.892 2.037c-.46.028-.92.086-1.375.174l-1.364-1.762-1.47.5-.008 2.241c-.623.32-1.22.707-1.783 1.16l-2.078-.936L4.11 5.775l1.064 2.018c-.343.489-.64 1-.892 1.529L2 9.384l-.463 1.481 1.842 1.357c-.088.55-.131 1.105-.134 1.661L1.201 14.92l.214 1.538 2.245.44c.134.468.3.927.498 1.377l-1.48 1.836.827 1.315 2.3-.538a10.875 10.875 0 001.49 1.444l-.447 2.304 1.344.776 1.756-1.529c.504.203 1.022.365 1.547.487l.574 2.25 1.547.127.93-2.122a10.746 10.746 0 001.913-.29l1.478 1.713 1.441-.577-.042-.868-3.364-2.55a8.382 8.382 0 01-2.992.2 8.296 8.296 0 01-5.052-2.5A8.34 8.34 0 018.13 7.95a8.37 8.37 0 015.742-2.364 8.274 8.274 0 016.06 2.531c2.693 2.784 3.06 6.972 1.147 10.142l1.873 1.421c.235-.368.445-.747.63-1.135l2.265-.062L26.31 17l-1.829-1.347c.089-.554.133-1.116.134-1.676l2.032-1.032-.214-1.538-2.243-.44a10.663 10.663 0 00-.747-1.882l1.337-1.851-.894-1.27-2.2.64c-.028-.03-.055-.06-.083-.088a10.814 10.814 0 00-1.11-1l.422-2.175-1.345-.777L17.9 4.02a10.672 10.672 0 00-1.659-.513l-.547-2.15-1.55-.126zm-3.408 8.995a4.098 4.098 0 00-1.758.426l2.65 2.01c.801.609 1.029 1.764.414 2.575-.615.812-1.796.934-2.61.317l-2.647-2.009c-.271 1.453.242 2.992 1.5 3.946a4.053 4.053 0 003.821.568l.28-.1.236.179 7.921 6.01.237.179-.02.296c-.096 1.322.444 2.673 1.572 3.529 1.258.954 2.88 1.033 4.206.38l-2.647-2.008c-.813-.617-1.013-1.788-.398-2.598.616-.811 1.79-.903 2.591-.295l2.648 2.009c.27-1.453-.24-2.993-1.498-3.946a4.044 4.044 0 00-3.807-.588l-.278.099-.236-.18-7.921-6.01-.236-.179.02-.295a4.044 4.044 0 00-1.592-3.506 3.955 3.955 0 00-2.448-.81zm2.553 5.288l9.602 7.286-.661.873-9.604-7.288.663-.871z" fill="#FAFF00"/><path d="M38.398 14h-3.023l3.926-11.636h3.744L46.972 14h-3.023l-2.733-8.705h-.091L38.398 14zm-.404-4.58h6.319v2.137h-6.319V9.42zM48.224 14V2.364h2.813v9.352h4.84V14h-7.653zm9.11 0V2.364h4.807c.87 0 1.623.17 2.255.511a3.581 3.581 0 011.472 1.415c.345.602.517 1.303.517 2.102 0 .803-.176 1.506-.529 2.108a3.544 3.544 0 01-1.494 1.392c-.647.33-1.416.494-2.307.494H59.09V8.17h2.443c.424 0 .778-.073 1.062-.221.288-.148.506-.354.654-.62.147-.268.221-.58.221-.937 0-.36-.074-.67-.221-.932a1.488 1.488 0 00-.654-.613c-.288-.144-.642-.216-1.062-.216h-1.387V14h-2.812zm10.437 0V2.364h2.813v4.67h4.585v-4.67h2.807V14h-2.807V9.324h-4.585V14H67.77zm14.486 0h-3.023l3.927-11.636h3.744L90.83 14h-3.023l-2.733-8.705h-.09L82.256 14zm-.403-4.58h6.318v2.137h-6.318V9.42z" fill="#F8F8F8"/><path d="M37.76 27h-2.455l3.19-9.454h3.042L44.727 27H42.27l-2.22-7.072h-.074L37.76 27zm-.327-3.72h5.133v1.735h-5.133v-1.736zM45.745 27v-9.454h3.905c.708 0 1.32.138 1.833.415a2.91 2.91 0 011.196 1.15c.28.489.42 1.058.42 1.707 0 .653-.143 1.224-.43 1.713a2.88 2.88 0 01-1.214 1.131c-.526.268-1.15.402-1.874.402h-2.41v-1.8h1.985c.345 0 .633-.06.864-.18.234-.12.41-.288.53-.504.12-.218.18-.472.18-.761 0-.293-.06-.545-.18-.758a1.208 1.208 0 00-.53-.498c-.234-.117-.522-.176-.864-.176H48.03V27h-2.285zm8.48 0v-9.454h3.906c.708 0 1.319.138 1.833.415a2.91 2.91 0 011.195 1.15c.28.489.42 1.058.42 1.707 0 .653-.143 1.224-.429 1.713a2.879 2.879 0 01-1.214 1.131c-.526.268-1.151.402-1.874.402h-2.41v-1.8h1.985c.345 0 .632-.06.863-.18.234-.12.411-.288.531-.504.12-.218.18-.472.18-.761 0-.293-.06-.545-.18-.758a1.209 1.209 0 00-.53-.498c-.235-.117-.523-.176-.864-.176H56.51V27h-2.285zm8.48 0v-9.454h2.286v7.598h3.933V27h-6.218zm9.687-9.454V27h-2.285v-9.454h2.285zM75.872 27h-2.456l3.19-9.454h3.042L82.838 27h-2.456l-2.22-7.072h-.074L75.872 27zm-.328-3.72h5.134v1.735h-5.134v-1.736zm16.359-5.735V27h-1.94l-3.762-5.457h-.06V27h-2.285v-9.454h1.967l3.72 5.447h.08v-5.447h2.28zm10.019 3.426h-2.309a2 2 0 00-.189-.642 1.561 1.561 0 00-.937-.799 2.14 2.14 0 00-.706-.11c-.459 0-.854.112-1.187.337-.33.224-.583.55-.761.974-.176.424-.264.938-.264 1.542 0 .628.09 1.154.268 1.579.182.421.436.74.762.955.33.213.718.319 1.168.319.252 0 .481-.033.688-.097.209-.065.392-.159.549-.282.16-.126.29-.278.392-.457.105-.181.177-.386.217-.614l2.309.014c-.04.418-.162.831-.365 1.237-.2.407-.476.777-.826 1.113-.351.332-.78.597-1.284.794-.502.197-1.077.295-1.726.295-.856 0-1.622-.188-2.3-.563-.673-.378-1.206-.93-1.597-1.653-.39-.723-.586-1.603-.586-2.64 0-1.04.198-1.922.596-2.645.397-.724.934-1.273 1.61-1.649.678-.375 1.436-.563 2.277-.563.572 0 1.101.08 1.588.24a3.85 3.85 0 011.283.693c.369.301.669.672.9 1.112.231.44.374.944.43 1.51zM103.229 27v-9.454h6.593V19.4h-4.308v1.94h3.971v1.86h-3.971v1.943h4.308V27h-6.593zm10.817 0v-9.454h3.905c.708 0 1.319.127 1.833.383.517.252.916.615 1.196 1.09.28.47.42 1.029.42 1.675 0 .655-.143 1.213-.43 1.671a2.741 2.741 0 01-1.218 1.043c-.527.237-1.15.356-1.87.356h-2.47v-1.8h2.045c.345 0 .633-.045.863-.134.234-.093.411-.231.531-.416.12-.188.18-.428.18-.72 0-.293-.06-.534-.18-.725a1.083 1.083 0 00-.531-.434c-.233-.098-.521-.148-.863-.148h-1.126V27h-2.285zm5.322-4.321L121.723 27h-2.493l-2.308-4.321h2.446zM122.653 27v-9.454h6.592V19.4h-4.307v1.94h3.97v1.86h-3.97v1.943h4.307V27h-6.592zm8.023 0v-9.454h3.906c.708 0 1.319.138 1.833.415.517.274.915.657 1.195 1.15.281.489.421 1.058.421 1.707 0 .653-.144 1.224-.43 1.713a2.88 2.88 0 01-1.214 1.131c-.526.268-1.151.402-1.874.402h-2.41v-1.8h1.985c.345 0 .633-.06.863-.18.234-.12.411-.288.531-.504.12-.218.18-.472.18-.761 0-.293-.06-.545-.18-.758a1.208 1.208 0 00-.531-.498c-.234-.117-.521-.176-.863-.176h-1.126V27h-2.286zm9.383 0h-2.455l3.19-9.454h3.042l3.19 9.454h-2.456l-2.221-7.072h-.074L140.059 27zm-.327-3.72h5.133v1.735h-5.133v-1.736zm10.597-5.735V27h-2.285v-9.454h2.285zM151.763 27v-9.454h3.906c.708 0 1.319.127 1.833.383.517.252.915.615 1.195 1.09.28.47.42 1.029.42 1.675 0 .655-.143 1.213-.429 1.671a2.738 2.738 0 01-1.219 1.043c-.526.237-1.149.356-1.869.356h-2.47v-1.8h2.045c.345 0 .632-.045.863-.134.234-.093.411-.231.531-.416.12-.188.18-.428.18-.72 0-.293-.06-.534-.18-.725a1.083 1.083 0 00-.531-.434c-.234-.098-.521-.148-.863-.148h-1.126V27h-2.286zm5.323-4.321L159.441 27h-2.493l-2.309-4.321h2.447z" fill="#FAFF00"/></svg><svg fill="none" viewBox="0 0 18 19" id="Search-icon" xmlns="http://www.w3.org/2000/svg"><g clip-path="url(#bclip0_2_204)"><path fill-rule="evenodd" clip-rule="evenodd" d="M13.247 11.881a7.263 7.263 0 10-1.868 1.867l4.75 4.752 1.868-1.868-4.75-4.75zm-2.508-1.064a4.627 4.627 0 10-.422.422l.422-.422z" fill="#485982"/></g><defs><clipPath id="bclip0_2_204"><path fill="#fff" transform="translate(0 .5)" d="M0 0h18v18H0z"/></clipPath></defs></svg><svg fill="none" viewBox="0 0 18 18" id="Settings-icon" xmlns="http://www.w3.org/2000/svg"><g clip-path="url(#cclip0_2_158)" fill="#344265"><path d="M16.02 7.47c-.18-.81-.54-1.62-.99-2.34l.9-1.89-1.26-1.26-1.89.9c-.72-.45-1.44-.72-2.25-.9L9.9 0H8.1l-.72 1.98c-.81.18-1.53.54-2.25.99l-1.89-.9-1.26 1.17.9 1.89c-.45.72-.72 1.44-.9 2.25L0 8.1v1.8l1.98.72c.18.81.54 1.62.9 2.25l-.9 1.89 1.26 1.26 1.89-.9c.72.45 1.44.81 2.25.99L8.1 18h1.8l.72-1.98c.27-.09.63-.18.9-.27l-1.44-1.44C6.66 14.94 3.6 12.42 3.6 9c0-2.97 2.43-5.4 5.4-5.4 3.33 0 5.85 2.97 5.31 6.12l1.53 1.53c.09-.27.18-.45.18-.72L18 9.9V8.1l-1.98-.63z"/><path d="M17.64 15.66l-5.31-5.31c1.26-2.79-1.35-5.76-4.23-4.95l1.62 1.62c.72.72.72 1.89 0 2.52-.63.72-1.89.72-2.52 0L5.58 8.01c-.81 2.52 1.8 5.4 4.77 4.23l5.31 5.31c.54.54 1.35.54 1.89 0 .54-.45.54-1.35.09-1.89z"/></g><defs><clipPath id="cclip0_2_158"><rect width="18" height="18" rx="9" fill="#fff"/></clipPath></defs></svg><svg fill="none" viewBox="0 0 18 18" id="chekbox" xmlns="http://www.w3.org/2000/svg"><path d="M14.4 0H3.6A3.6 3.6 0 000 3.6v10.8A3.6 3.6 0 003.6 18h10.8a3.6 3.6 0 003.6-3.6V3.6A3.6 3.6 0 0014.4 0zm.208 7.33l-5.569 5.568c-.307.308-.71.461-1.113.461-.402 0-.806-.153-1.113-.461l-3.421-3.42A1.576 1.576 0 015.619 7.25l2.307 2.306 4.455-4.455a1.575 1.575 0 012.227 2.228z" fill="#485982"/></svg><svg fill="none" viewBox="0 0 10 18" id="facebook" xmlns="http://www.w3.org/2000/svg"><path d="M8.775 0H7.8a4.916 4.916 0 00-4.91 4.91v2.072H1.225a.31.31 0 00-.31.31v2.483c0 .172.139.31.31.31H2.89v7.605c0 .171.14.31.31.31h2.483a.31.31 0 00.31-.31v-7.604h2.47a.31.31 0 00.31-.31V7.292a.31.31 0 00-.31-.31h-2.47V4.91c0-.996.811-1.807 1.807-1.807h.975a.31.31 0 00.31-.31V.31a.31.31 0 00-.31-.31z" fill="#344265"/></svg><svg fill="none" viewBox="0 0 19 18" id="instagram" xmlns="http://www.w3.org/2000/svg"><path d="M9.003 0C6.558 0 6.252.011 5.292.055 4.334.099 3.679.25 3.107.473A4.407 4.407 0 001.513 1.51c-.5.5-.808 1.002-1.039 1.594C.251 3.677.1 4.33.056 5.289.013 6.25.002 6.556.002 9c0 2.445.01 2.75.054 3.71.044.959.196 1.613.418 2.185a4.41 4.41 0 001.038 1.594c.5.5 1.003.81 1.594 1.039.573.223 1.227.374 2.185.418C6.25 17.99 6.557 18 9 18c2.445 0 2.75-.01 3.71-.054.959-.044 1.614-.195 2.186-.418a4.404 4.404 0 001.594-1.039c.5-.5.808-1.002 1.038-1.594.222-.572.373-1.227.419-2.184.043-.96.054-1.266.054-3.71 0-2.445-.011-2.752-.054-3.712-.046-.958-.197-1.612-.419-2.184a4.417 4.417 0 00-1.038-1.594A4.4 4.4 0 0014.897.473C14.323.25 13.669.099 12.71.055 11.75.01 11.445 0 9 0h.003zm-.808 1.622h.808c2.403 0 2.688.009 3.636.052.878.04 1.354.187 1.671.31.42.163.72.358 1.035.673.315.315.51.615.673 1.035.123.317.27.793.31 1.67.043.95.053 1.234.053 3.636s-.01 2.687-.053 3.636c-.04.877-.187 1.354-.31 1.67-.163.42-.358.72-.673 1.034-.315.316-.614.51-1.035.674-.316.123-.793.27-1.67.31-.95.043-1.234.052-3.637.052-2.404 0-2.688-.01-3.637-.052-.878-.04-1.354-.187-1.671-.31a2.789 2.789 0 01-1.035-.674 2.79 2.79 0 01-.674-1.034c-.123-.317-.27-.793-.31-1.67-.043-.95-.052-1.235-.052-3.638 0-2.403.01-2.687.052-3.636.04-.877.187-1.353.31-1.67.163-.42.359-.72.674-1.036.315-.315.615-.51 1.035-.673.317-.124.793-.27 1.67-.31.831-.038 1.153-.05 2.83-.051v.002zm5.612 1.495a1.08 1.08 0 100 2.16 1.08 1.08 0 000-2.16zM9.003 4.378a4.622 4.622 0 100 9.245 4.622 4.622 0 000-9.245zm0 1.622a3 3 0 110 6 3 3 0 010-6z" fill="#344265"/></svg><svg fill="none" viewBox="0 0 18 18" id="phone" xmlns="http://www.w3.org/2000/svg"><path d="M16.064 16.5c-7.998.011-14.069-6.132-14.06-14.06 0-.518.42-.94.937-.94h2.475c.464 0 .86.341.927.8a11.64 11.64 0 00.953 3.185l.096.208a.663.663 0 01-.216.818c-.766.547-1.06 1.649-.462 2.508a11.077 11.077 0 002.771 2.771c.86.597 1.961.305 2.508-.462.186-.26.53-.35.819-.216l.207.096c1.01.468 2.083.789 3.184.952.46.068.8.463.8.928v2.475c0 .517-.42.937-.938.937z" fill="#fff"/></svg><svg fill="none" viewBox="0 0 19 18" id="pinterest" xmlns="http://www.w3.org/2000/svg"><g clip-path="url(#hclip0_7_197)"><path d="M2.038 6.461c0-.756.158-1.506.477-2.25a7.143 7.143 0 011.368-2.069C4.476 1.507 5.256.99 6.223.594 7.188.198 8.258 0 9.433 0c1.908 0 3.474.589 4.698 1.764 1.223 1.175 1.835 2.561 1.835 4.157 0 2.052-.518 3.747-1.556 5.084-1.039 1.337-2.38 2.007-4.023 2.007a3.19 3.19 0 01-1.52-.378c-.474-.252-.807-.558-1-.918l-.72 2.844a5.51 5.51 0 01-.233.692 7.733 7.733 0 01-.315.675c-.113.216-.228.42-.342.612a11.93 11.93 0 01-.639.963 5.987 5.987 0 01-.234.297l-.108.144a.133.133 0 01-.144.054.13.13 0 01-.108-.108c0-.013-.009-.095-.027-.252a18.818 18.818 0 01-.108-1.17c-.018-.275-.023-.543-.018-.8.006-.258.024-.544.054-.855.031-.312.076-.6.135-.864.132-.564.576-2.442 1.332-5.633a3.028 3.028 0 01-.234-.693 3.22 3.22 0 01-.09-.657l-.018-.27c0-.768.195-1.407.585-1.916.39-.51.86-.765 1.413-.765.444 0 .788.147 1.035.44.246.294.368.663.368 1.107 0 .276-.05.616-.152 1.017-.103.401-.238.864-.405 1.386a15.14 15.14 0 00-.36 1.269c-.12.54-.015 1.007.315 1.403.329.396.77.594 1.322.594.949 0 1.732-.536 2.349-1.61.617-1.075.927-2.372.927-3.897 0-1.164-.378-2.114-1.134-2.852-.756-.738-1.812-1.107-3.167-1.107-1.512 0-2.74.486-3.68 1.458-.942.972-1.413 2.136-1.413 3.491 0 .805.228 1.481.683 2.034.157.18.204.372.144.576-.023.059-.059.198-.108.414a3.726 3.726 0 01-.108.413c-.023.132-.084.22-.18.261a.407.407 0 01-.323-.009c-.708-.287-1.239-.782-1.593-1.484-.355-.702-.531-1.521-.531-2.457z" fill="#344265"/></g><defs><clipPath id="hclip0_7_197"><path fill="#fff" transform="translate(.002)" d="M0 0h18v18H0z"/></clipPath></defs></svg><svg fill="none" viewBox="0 0 18 13" id="youtube" xmlns="http://www.w3.org/2000/svg"><path d="M9.06.248h.1c.924.004 5.61.038 6.873.377.775.208 1.385.82 1.592 1.597.113.427.193.995.248 1.578l.011.117c.009.098.017.195.024.293l.009.116c.074 1.029.082 1.991.083 2.202v.085c0 .218-.01 1.246-.092 2.318l-.009.117-.01.117c-.055.644-.14 1.284-.264 1.753a2.258 2.258 0 01-1.592 1.597c-1.305.351-6.265.376-6.953.378h-.086H8.92c-.347-.001-1.786-.008-3.293-.06l-.192-.007c-.033 0-.065-.002-.097-.003l-.193-.008-.192-.008c-1.248-.055-2.438-.145-2.986-.292a2.258 2.258 0 01-1.591-1.597C.25 10.448.167 9.81.112 9.165l-.01-.117-.009-.117A35.325 35.325 0 01.001 6.64v-.038-.054-.047c.001-.241.01-1.078.071-2l.008-.116.004-.059.009-.116c.007-.098.015-.195.024-.293l.01-.117c.056-.583.136-1.15.25-1.578A2.258 2.258 0 011.968.625C2.516.478 3.706.388 4.954.334l.192-.009.193-.007.097-.004.192-.007C7.038.26 8.39.25 8.842.248H9.059zM7.2 3.861V9.28l4.677-2.71-4.676-2.71z" fill="#344265"/></svg></svg>