<svg width="10" height="18" viewBox="0 0 10 18" fill="none" xmlns="http://www.w3.org/2000/svg">
<path d="M8.77469 0H7.80058C5.09314 0 2.89049 2.2027 2.89049 4.91015V6.98239H1.22624C1.05487 6.98239 0.915894 7.12136 0.915894 7.29273V9.77549C0.915894 9.94686 1.05487 10.0858 1.22624 10.0858H2.89037V17.6897C2.89037 17.861 3.02934 18 3.20071 18H5.68347C5.85485 18 5.99382 17.861 5.99382 17.6897V10.0858H8.46329C8.63467 10.0858 8.77364 9.94686 8.77364 9.77549V7.29273C8.77364 7.12136 8.63467 6.98239 8.46329 6.98239H5.99382V4.91015C5.99382 3.91394 6.80431 3.10345 7.80046 3.10345H8.77457C8.94594 3.10345 9.08492 2.96448 9.08492 2.7931V0.310345C9.08504 0.138972 8.94607 0 8.77469 0Z" fill="#344265"/>
</svg>
