<svg width="18" height="13" viewBox="0 0 18 13" fill="none" xmlns="http://www.w3.org/2000/svg">
<path d="M9.05926 0.247986C9.06565 0.247999 9.07256 0.248015 9.07996 0.248034L9.15961 0.248282C10.0841 0.251678 14.7699 0.285643 16.0332 0.62529C16.8077 0.833016 17.4176 1.44519 17.6246 2.22227C17.7385 2.6492 17.8179 3.21665 17.8733 3.80025L17.8841 3.91714C17.8928 4.01468 17.9008 4.11243 17.9083 4.20982L17.9169 4.32649C17.9909 5.35486 17.9995 6.31719 18.0005 6.52773L18.0006 6.55614C18.0006 6.55846 18.0006 6.56226 18.0006 6.56226V6.57821C18.0006 6.57821 18.0006 6.58201 18.0006 6.58433L18.0005 6.61274C17.9994 6.83124 17.9902 7.85937 17.9083 8.93071L17.899 9.04772L17.8892 9.16485C17.8335 9.80899 17.7499 10.4486 17.6246 10.9182C17.4176 11.6953 16.8077 12.3076 16.0332 12.5152C14.7278 12.8663 9.76794 12.8909 9.07996 12.8926L9.02698 12.8927C9.02263 12.8927 9.01881 12.8927 9.01552 12.8927L8.99392 12.8927C8.99392 12.8927 8.98895 12.8927 8.98566 12.8927L8.92123 12.8926C8.57355 12.8917 7.13485 12.885 5.62817 12.8333L5.43553 12.8264C5.40339 12.8252 5.37124 12.824 5.33909 12.8228L5.14624 12.8152L4.95383 12.807C3.70563 12.7522 2.51555 12.6624 1.96809 12.5152C1.19361 12.3076 0.583752 11.6953 0.376761 10.9182C0.251361 10.4486 0.167761 9.80899 0.112028 9.16485L0.102199 9.04772L0.0929651 8.93071C0.0139752 7.89833 0.00250899 6.90607 0.000844531 6.63975L0.000645634 6.60163C0.000631676 6.59819 0.000620044 6.59503 0.000610352 6.59215V6.54832C0.000620044 6.54544 0.000631676 6.54228 0.000645634 6.53884L0.000844531 6.50072C0.00235196 6.25954 0.011899 5.42295 0.0723639 4.50036L0.0801903 4.38462C0.0815399 4.36527 0.0829124 4.34589 0.0843082 4.32649L0.0929651 4.20982C0.100417 4.11243 0.10847 4.01468 0.117172 3.91714L0.12793 3.80025C0.183307 3.21665 0.262761 2.6492 0.376761 2.22227C0.583752 1.44519 1.19361 0.833016 1.96809 0.62529C2.51555 0.47811 3.70563 0.38833 4.95383 0.333564L5.14624 0.325411L5.33909 0.317794C5.37124 0.316567 5.40339 0.315363 5.43553 0.314179L5.62817 0.307329C7.03868 0.258909 8.38961 0.249942 8.84158 0.248282L8.92123 0.248034C8.92863 0.248015 8.93553 0.247999 8.94193 0.247986H9.05926ZM7.20065 3.86058V9.27989L11.877 6.57038L7.20065 3.86058Z" fill="#344265"/>
</svg>
